<svg width="170" height="56" viewBox="0 0 170 56" fill="none" xmlns="http://www.w3.org/2000/svg">
<rect width="56" height="56" rx="16" fill="url(#paint0_radial_39_337)"/>
<path d="M45.8406 30.4812L24.8721 42.9886L24.8721 17.9886L45.8406 30.4812Z" fill="url(#paint1_linear_39_337)"/>
<path d="M10.1594 26.0949L29.1594 13.0114L29.1594 38.0114L10.1594 26.0949Z" fill="url(#paint2_radial_39_337)"/>
<path d="M29.1511 37.9887L24.8721 42.9886L24.8721 35.3302L29.1511 37.9887Z" fill="url(#paint3_linear_39_337)"/>
<path d="M69.4886 29.0341V36.5H65.321V19.0455H69.3523V25.8125H69.4972C69.7926 25.0057 70.2756 24.375 70.946 23.9205C71.6222 23.4659 72.4489 23.2386 73.4261 23.2386C74.3466 23.2386 75.1477 23.4432 75.8295 23.8523C76.5114 24.2557 77.0398 24.8267 77.4148 25.5653C77.7955 26.304 77.983 27.1676 77.9773 28.1562V36.5H73.8097V28.9744C73.8153 28.2472 73.6335 27.679 73.2642 27.2699C72.8949 26.8608 72.375 26.6562 71.7045 26.6562C71.267 26.6562 70.8807 26.7528 70.5455 26.946C70.2159 27.1335 69.9574 27.4034 69.7699 27.7557C69.5881 28.108 69.4943 28.5341 69.4886 29.0341ZM86.6982 36.7472C85.3288 36.7472 84.147 36.4773 83.1527 35.9375C82.1641 35.392 81.4027 34.6165 80.8686 33.6108C80.3402 32.5994 80.076 31.3977 80.076 30.0057C80.076 28.6534 80.343 27.4716 80.8771 26.4602C81.4112 25.4432 82.1641 24.6534 83.1357 24.0909C84.1072 23.5227 85.2521 23.2386 86.5703 23.2386C87.5021 23.2386 88.3544 23.3835 89.1271 23.6733C89.8999 23.9631 90.5675 24.392 91.13 24.9602C91.6925 25.5284 92.13 26.2301 92.4425 27.0653C92.755 27.8949 92.9112 28.8466 92.9112 29.9205V30.9602H81.5334V28.5398H89.0334C89.0277 28.0966 88.9226 27.7017 88.718 27.3551C88.5135 27.0085 88.2322 26.7386 87.8743 26.5455C87.522 26.3466 87.1158 26.2472 86.6555 26.2472C86.1896 26.2472 85.772 26.3523 85.4027 26.5625C85.0334 26.767 84.7408 27.0483 84.5249 27.4062C84.3089 27.7585 84.1953 28.1591 84.1839 28.608V31.071C84.1839 31.6051 84.2891 32.0739 84.4993 32.4773C84.7095 32.875 85.0078 33.1847 85.3942 33.4062C85.7805 33.6278 86.2408 33.7386 86.7749 33.7386C87.1442 33.7386 87.4794 33.6875 87.7805 33.5852C88.0817 33.483 88.3402 33.3324 88.5561 33.1335C88.772 32.9347 88.9339 32.6903 89.0419 32.4006L92.8686 32.5114C92.7095 33.3693 92.3601 34.1165 91.8203 34.7528C91.2862 35.3835 90.5845 35.875 89.7152 36.2273C88.8459 36.5739 87.8402 36.7472 86.6982 36.7472ZM98.3977 23.4091L100.554 27.7216L102.787 23.4091H106.989L103.332 29.9545L107.125 36.5H102.957L100.554 32.1534L98.2102 36.5H93.983L97.7841 29.9545L94.1705 23.4091H98.3977ZM116.73 27.8324V31.0455H108.651V27.8324H116.73ZM119.673 36.5V23.4091H123.721V25.7955H123.857C124.096 24.9318 124.485 24.2898 125.025 23.8693C125.565 23.4432 126.192 23.2301 126.908 23.2301C127.102 23.2301 127.3 23.2443 127.505 23.2727C127.71 23.2955 127.9 23.3324 128.076 23.3835V27.0057C127.877 26.9375 127.616 26.8835 127.292 26.8438C126.974 26.804 126.69 26.7841 126.44 26.7841C125.945 26.7841 125.499 26.8949 125.102 27.1165C124.71 27.3324 124.4 27.6364 124.173 28.0284C123.951 28.4148 123.84 28.8693 123.84 29.392V36.5H119.673ZM132.972 36.7216C132.137 36.7216 131.396 36.5824 130.748 36.304C130.106 36.0199 129.597 35.5937 129.222 35.0256C128.853 34.4517 128.668 33.733 128.668 32.8693C128.668 32.142 128.796 31.5284 129.052 31.0284C129.308 30.5284 129.66 30.1222 130.109 29.8097C130.558 29.4972 131.075 29.2614 131.66 29.1023C132.245 28.9375 132.87 28.8267 133.535 28.7699C134.279 28.7017 134.879 28.6307 135.333 28.5568C135.788 28.4773 136.117 28.3665 136.322 28.2244C136.532 28.0767 136.637 27.8693 136.637 27.6023V27.5597C136.637 27.1222 136.487 26.7841 136.185 26.5455C135.884 26.3068 135.478 26.1875 134.967 26.1875C134.415 26.1875 133.972 26.3068 133.637 26.5455C133.302 26.7841 133.089 27.1136 132.998 27.5341L129.154 27.3977C129.268 26.6023 129.56 25.892 130.032 25.267C130.509 24.6364 131.163 24.142 131.992 23.7841C132.827 23.4205 133.83 23.2386 135.001 23.2386C135.836 23.2386 136.606 23.3381 137.31 23.5369C138.015 23.7301 138.629 24.0142 139.151 24.3892C139.674 24.7585 140.077 25.2131 140.362 25.7528C140.651 26.2926 140.796 26.9091 140.796 27.6023V36.5H136.876V34.6761H136.773C136.54 35.1193 136.242 35.4943 135.879 35.8011C135.521 36.108 135.097 36.3381 134.609 36.4915C134.126 36.6449 133.58 36.7216 132.972 36.7216ZM134.259 33.9943C134.708 33.9943 135.112 33.9034 135.469 33.7216C135.833 33.5398 136.123 33.2898 136.339 32.9716C136.555 32.6477 136.663 32.2727 136.663 31.8466V30.6023C136.543 30.6648 136.398 30.7216 136.228 30.7727C136.063 30.8239 135.881 30.8722 135.683 30.9176C135.484 30.9631 135.279 31.0028 135.069 31.0369C134.859 31.071 134.657 31.1023 134.464 31.1307C134.072 31.1932 133.737 31.2898 133.458 31.4205C133.185 31.5511 132.975 31.7216 132.827 31.9318C132.685 32.1364 132.614 32.3807 132.614 32.6648C132.614 33.0966 132.768 33.4261 133.075 33.6534C133.387 33.8807 133.782 33.9943 134.259 33.9943ZM145.424 41.4091C144.924 41.4091 144.452 41.3693 144.009 41.2898C143.566 41.2159 143.185 41.1165 142.867 40.9915L143.788 37.9659C144.197 38.1023 144.566 38.1818 144.896 38.2045C145.231 38.2273 145.518 38.1733 145.756 38.0426C146.001 37.9176 146.188 37.6932 146.319 37.3693L146.481 36.9773L141.827 23.4091H146.191L148.603 32.75H148.739L151.185 23.4091H155.575L150.64 37.7528C150.401 38.4688 150.063 39.0994 149.626 39.6449C149.194 40.196 148.634 40.6278 147.947 40.9403C147.265 41.2528 146.424 41.4091 145.424 41.4091ZM168.602 27.4062L164.775 27.5085C164.735 27.2358 164.627 26.9943 164.451 26.7841C164.275 26.5682 164.045 26.4006 163.761 26.2812C163.482 26.1562 163.158 26.0938 162.789 26.0938C162.306 26.0938 161.894 26.1903 161.553 26.3835C161.218 26.5767 161.053 26.8381 161.059 27.1676C161.053 27.4233 161.156 27.6449 161.366 27.8324C161.582 28.0199 161.965 28.1705 162.516 28.2841L165.039 28.7614C166.346 29.0114 167.317 29.4261 167.954 30.0057C168.596 30.5852 168.92 31.3523 168.925 32.3068C168.92 33.2045 168.653 33.9858 168.124 34.6506C167.602 35.3153 166.886 35.8324 165.977 36.2017C165.067 36.5653 164.028 36.7472 162.857 36.7472C160.988 36.7472 159.513 36.3636 158.434 35.5966C157.36 34.8239 156.746 33.7898 156.593 32.4943L160.71 32.392C160.8 32.8693 161.036 33.233 161.417 33.483C161.798 33.733 162.283 33.858 162.874 33.858C163.408 33.858 163.843 33.7585 164.178 33.5597C164.513 33.3608 164.684 33.0966 164.69 32.767C164.684 32.4716 164.553 32.2358 164.298 32.0597C164.042 31.8778 163.641 31.7358 163.096 31.6335L160.812 31.1989C159.499 30.9602 158.522 30.5199 157.88 29.8778C157.238 29.2301 156.92 28.4062 156.925 27.4062C156.92 26.5312 157.153 25.7841 157.624 25.1648C158.096 24.5398 158.766 24.0625 159.636 23.733C160.505 23.4034 161.531 23.2386 162.712 23.2386C164.485 23.2386 165.883 23.6108 166.906 24.3551C167.928 25.0937 168.494 26.1108 168.602 27.4062Z" fill="#222222"/>
<defs>
<radialGradient id="paint0_radial_39_337" cx="0" cy="0" r="1" gradientUnits="userSpaceOnUse" gradientTransform="translate(7.60412 5.88192) rotate(47.4896) scale(59.6936)">
<stop stop-color="#3C3C3C"/>
<stop offset="1" stop-color="#191919"/>
</radialGradient>
<linearGradient id="paint1_linear_39_337" x1="36.7358" y1="29.8057" x2="30.4879" y2="29.5291" gradientUnits="userSpaceOnUse">
<stop stop-color="white"/>
<stop offset="1" stop-color="#B8B9BA"/>
</linearGradient>
<radialGradient id="paint2_radial_39_337" cx="0" cy="0" r="1" gradientUnits="userSpaceOnUse" gradientTransform="translate(29.1594 29.3523) rotate(-141.41) scale(14.2151 43.0869)">
<stop stop-color="white"/>
<stop offset="1" stop-color="#E0E4E8"/>
</radialGradient>
<linearGradient id="paint3_linear_39_337" x1="26.5047" y1="39.1594" x2="26.5196" y2="37.0279" gradientUnits="userSpaceOnUse">
<stop stop-color="white"/>
<stop offset="1" stop-color="#BCBEC1"/>
</linearGradient>
</defs>
</svg>
